<?xml version="1.0" encoding="UTF-8"?><svg id="a" xmlns="http://www.w3.org/2000/svg" viewBox="0 0 34.63 36.19"><defs><style>.b{fill:none;}.b,.c,.d,.e,.f,.g,.h,.i,.j,.k{stroke-miterlimit:10;stroke-width:.19px;}.b,.c,.d,.e,.f,.g,.h,.i,.k{stroke:#1d1d1b;}.l,.i,.j{fill:#fff;}.m,.d{fill:#1d1d1b;}.c{fill:#432918;}.e{fill:#36a9e1;}.f{fill:#936037;}.g{fill:#ca9e67;}.h{fill:#7d4e24;}.j{stroke:#fff;}.k{fill:#f6f6f6;}</style></defs><path class="i" d="M20.04,8.05c0,.72-.58,1.3-1.31,1.3s-1.3-.58-1.3-1.3,.58-1.31,1.3-1.31,1.31,.58,1.31,1.31Z"/><path class="i" d="M19.65,3.56c-.28-.16-.59-.28-.91-.36-.11-.03-.23-.05-.34-.07-.18-.03-.37-.04-.56-.04-.35,0-.7,.05-1.02,.14-.43,.12-.83,.32-1.17,.59-.89,.67-1.47,1.73-1.47,2.93,0,2.02,1.64,3.66,3.66,3.66,.95,0,1.82-.36,2.47-.96,.73-.67,1.2-1.63,1.2-2.71,0-1.37-.75-2.56-1.85-3.19Zm-.91,5.8c-.72,0-1.3-.58-1.3-1.3s.58-1.31,1.3-1.31,1.31,.58,1.31,1.31-.58,1.3-1.31,1.3Z"/><path class="m" d="M20.04,8.05c0,.72-.58,1.3-1.31,1.3s-1.3-.58-1.3-1.3,.58-1.31,1.3-1.31,1.31,.58,1.31,1.31Z"/><circle class="l" cx="19.2" cy="7.59" r=".46"/><path class="e" d="M7.38,1.37c-.42,.22-.83,.47-1.23,.76-.51,.37-1.01,.79-1.47,1.26-.26,.26-.51,.54-.75,.83-.6-.41-.99-1.09-.99-1.86C2.93,1.12,3.98,.1,5.27,.1c.92,0,1.72,.52,2.1,1.27Z"/><path class="e" d="M19.91,2.51c0,.38-.09,.73-.26,1.05-.28-.16-.59-.28-.91-.36-.08-.08-.16-.15-.25-.23-.46-.4-1.01-.76-1.67-1.1-.38-.19-.8-.37-1.25-.54,.41-.65,1.15-1.09,2-1.09,1.29,0,2.34,1.02,2.34,2.28Z"/><path class="b" d="M9.2,2.71c-.62,0-1.21,.16-1.73,.43-.6,.32-1.1,.8-1.44,1.38-.32,.54-.5,1.17-.5,1.85,0,2.02,1.64,3.66,3.66,3.66s3.66-1.64,3.66-3.66-1.64-3.66-3.66-3.66Zm.8,6.27c-.72,0-1.3-.58-1.3-1.31s.58-1.31,1.3-1.31,1.31,.58,1.31,1.31-.58,1.31-1.31,1.31Z"/><path class="b" d="M18.74,6.75c-.72,0-1.3,.58-1.3,1.31s.58,1.3,1.3,1.3,1.31-.58,1.31-1.3-.58-1.31-1.31-1.31Z"/><path class="i" d="M13.34,13.29v1.51c0,.19-.08,.36-.2,.49-.13,.12-.3,.2-.49,.2-.38,0-.69-.31-.69-.69v-1.38c.35-.06,.77-.16,1.27-.14,.04,0,.07,0,.11,0Z"/><path class="e" d="M17.75,23.53c-.18,.22-.37,.33-.55,.3-.18-.03-.32-.19-.43-.44-.24,.2-.47,.28-.65,.21-.33-.13-.43-.72-.31-1.49,.06-.39,.18-.83,.35-1.29,.03-.07,.06-.15,.09-.22,.45-1.06,1.08-1.82,1.54-1.89,.08-.03,.15-.05,.23-.03,.52,.08,.76,1.31,.53,2.73-.04,.27-.1,.53-.17,.77l.69,.5c-.2-1.92-.47-4.04-.34-6.33,.11-1.9,1.15-4.41,1.56-6.89-.65,.59-1.52,.96-2.47,.96-2.02,0-3.66-1.64-3.66-3.66,0-1.2,.58-2.27,1.47-2.93,.35-.26,.74-.46,1.17-.59,.32-.09,.67-.14,1.02-.14,.19,0,.38,.01,.56,.04,.04-.05,.07-.1,.09-.16-.46-.4-1.01-.76-1.67-1.1-.38-.19-.8-.37-1.25-.54-.78-.29-1.68-.54-2.7-.76-1.9-.39-3.78-.08-5.49,.8-.42,.22-.83,.47-1.23,.76-.51,.37-1.01,.79-1.47,1.26-.26,.26-.51,.54-.75,.83C1.58,7.06,.05,11.29,.1,16.35c.06,6.93,1.73,12.31,5.24,14.73,.34,.24,.7,.44,1.07,.62,1.71,.81,3.78,1.01,6.23,.49,.88-.19,1.64-.41,2.31-.65,.48-.18,.91-.37,1.3-.58,2.7-1.46,3.13-3.63,2.99-6.34l-1.49-1.09Zm-1.99-11c-.12,1.06-.51,1.18-1.05,1.08v1.19c0,.19-.08,.36-.2,.49-.13,.12-.3,.2-.49,.2-.38,0-.69-.31-.69-.69,0,.19-.08,.36-.2,.49-.13,.12-.3,.2-.49,.2-.38,0-.69-.31-.69-.69v-1.38c-.62,.11-1.02,.1-1.26-.9-.15-.64,.44-1.21,1.29-1.51-.02-.07-.02-.14-.02-.21,0-.66,.65-1.19,1.45-1.19s1.45,.53,1.45,1.19c0,.12-.02,.24-.07,.36,.62,.32,1.03,.81,.96,1.37Z"/><path class="g" d="M15.76,12.53c-.12,1.06-.51,1.18-1.05,1.08-.4-.08-.87-.28-1.38-.32-.04,0-.07,0-.11,0-.5-.02-.92,.08-1.27,.14-.62,.11-1.02,.1-1.26-.9-.15-.64,.44-1.21,1.29-1.51,.12,.56,.72,.98,1.43,.98,.65,0,1.2-.35,1.39-.84,.62,.32,1.03,.81,.96,1.37Z"/><path class="k" d="M14.72,13.61v1.19c0,.19-.08,.36-.2,.49-.13,.12-.3,.2-.49,.2-.38,0-.69-.31-.69-.69v-1.51c.51,.04,.98,.24,1.38,.32Z"/><path class="g" d="M11.51,17.11c-.13,.31-.64,.62-1.34,.84-.33,.1-.7,.18-1.09,.23-1.25,.16-2.33-.04-2.63-.44-.07-.05-.11-.11-.14-.19-.14-.4,.44-.98,1.37-1.44,.24-.12,.5-.23,.78-.32,.32-.11,.63-.19,.93-.25,.96-.18,1.72-.08,1.85,.3,.06,.17-.01,.37-.19,.59,.29,.12,.47,.28,.5,.47,0,.07,0,.14-.03,.21Z"/><path class="i" d="M9.2,2.71c-.62,0-1.21,.16-1.73,.43-.6,.32-1.1,.8-1.44,1.38-.32,.54-.5,1.17-.5,1.85,0,2.02,1.64,3.66,3.66,3.66s3.66-1.64,3.66-3.66-1.64-3.66-3.66-3.66Zm.8,6.27c-.72,0-1.3-.58-1.3-1.31s.58-1.31,1.3-1.31,1.31,.58,1.31,1.31-.58,1.31-1.31,1.31Z"/><path class="d" d="M10.01,6.37c-.72,0-1.3,.58-1.3,1.31s.58,1.31,1.3,1.31,1.31-.58,1.31-1.31-.58-1.31-1.31-1.31Zm.46,1.31c-.25,0-.46-.2-.46-.46s.21-.46,.46-.46,.46,.2,.46,.46-.2,.46-.46,.46Z"/><path class="j" d="M10.92,7.22c0,.25-.2,.46-.46,.46s-.46-.2-.46-.46,.21-.46,.46-.46,.46,.2,.46,.46Z"/><path class="d" d="M14.86,10.8c0,.12-.02,.24-.07,.36-.18,.49-.74,.84-1.39,.84-.72,0-1.31-.42-1.43-.98-.02-.07-.02-.14-.02-.21,0-.66,.65-1.19,1.45-1.19s1.45,.53,1.45,1.19Z"/><path class="b" d="M18.74,3.2c-.11-.03-.23-.05-.34-.07,.04-.05,.07-.1,.09-.16,.09,.08,.17,.15,.25,.23Z"/><path class="d" d="M6.14,2.13c-.51,.37-1.01,.79-1.47,1.26-.28-.18-.46-.49-.46-.85,0-.56,.45-1.01,1.01-1.01,.41,0,.76,.24,.92,.59Z"/><path class="d" d="M18.58,2.55c0,.15-.03,.29-.09,.42-.46-.4-1.01-.76-1.67-1.1,.19-.2,.45-.33,.75-.33,.56,0,1.01,.45,1.01,1.01Z"/><g><path class="g" d="M17.98,35.18c-.15,.09-.37,.06-.61-.07-.06,.31-.18,.52-.36,.58-.5,.17-1.28-.8-1.74-2.17-.25-.75-.35-1.46-.31-1.98,.48-.18,.91-.37,1.3-.58,.4,.32,.85,.84,1.23,1.49,.73,1.24,.95,2.46,.5,2.73Z"/><line class="g" x1="17.37" y1="35.11" x2="16.66" y2="33.67"/></g><g><path class="g" d="M6.52,33.6c-.14,1.43-.69,2.55-1.21,2.5-.18-.02-.33-.17-.45-.42-.23,.21-.45,.31-.64,.25-.5-.16-.56-1.4-.12-2.77,.32-.99,.8-1.78,1.24-2.08,.34,.24,.7,.44,1.07,.62,.13,.49,.18,1.16,.11,1.9Z"/><line class="g" x1="4.85" y1="35.68" x2="5.13" y2="34.1"/></g><path class="f" d="M9.39,15.54c-.29,.06-.61,.14-.93,.25-.28,.1-.54,.21-.78,.32l-1.26-.93c-.33-.24-.4-.7-.16-1.03,.14-.2,.37-.3,.59-.3,.15,0,.3,.05,.44,.14l2.09,1.54Z"/><path class="h" d="M16.26,20.6c-.03,.07-.06,.14-.09,.22-.18,.45-.29,.89-.35,1.29l-5.65-4.16c.7-.22,1.21-.53,1.34-.84l4.75,3.49Z"/><path class="f" d="M25.37,27.3l-.98,1.11-5.16-3.79-1.49-1.09c.24-.29,.47-.77,.64-1.36l.69,.5,6.29,4.63Z"/><line class="b" x1="11.01" y1="16.44" x2="9.5" y2="16.95"/><line class="b" x1="16.8" y1="23.43" x2="17.22" y2="21.89"/><path class="g" d="M27.56,29.6l-.42,.79-3.11-1.18c-.12-.05-.16-.2-.07-.3l.44-.5,.98-1.11,.42-.48c.09-.1,.25-.08,.31,.04l1.46,2.74Z"/><path class="c" d="M29.14,29.98c-.24,.11-.46,.27-.63,.48-.15,.18-.26,.37-.33,.58l-1.11-.2c-.07-.01-.11-.09-.08-.16l.16-.29,.42-.79,.35-.66c.03-.06,.12-.08,.17-.03l1.05,1.06Z"/><path class="g" d="M34.1,35.22l-3.32-.91,.4,.78c.07,.14-.1,.28-.22,.17l-1.66-1.48c-.09-.06-.19-.13-.27-.2-.81-.67-1.12-1.69-.84-2.52,.07-.21,.18-.41,.33-.58,.18-.21,.39-.37,.63-.48,.42-.2,.92-.24,1.42-.12,.03,0,.05,.01,.08,.02,.36,.1,.71,.27,1.02,.53,.11,.09,.2,.18,.29,.28l1.95,1.21c.17,.11,.07,.37-.12,.34l-.9-.12,1.61,2.58c.17,.27-.08,.6-.38,.52Z"/><path class="g" d="M15.96,23.52c-.22-.27-.25-.87-.11-1.61,.07-.34,.17-.71,.32-1.09,.46-1.2,1.15-2.08,1.65-2.16,.08-.04,.16-.05,.23-.04,.42,.07,.66,.86,.63,1.92,0,.27-.04,.56-.08,.85-.05,.34-.13,.66-.22,.95-.29,.95-.75,1.58-1.15,1.52-.18-.03-.33-.19-.43-.45-.24,.21-.47,.29-.66,.22-.06-.02-.12-.07-.17-.13Z"/><line class="b" x1="17.27" y1="21.93" x2="16.75" y2="23.44"/><path class="b" d="M30.63,29.88s-.05-.01-.08-.02c.03,0,.05,0,.08,.02Z"/></svg>