<?xml version="1.0" encoding="UTF-8"?>
<svg id="Warstwa_2" data-name="Warstwa 2" xmlns="http://www.w3.org/2000/svg" width="188.46mm" height="196.96mm" viewBox="0 0 534.21 558.31">
  <defs>
    <style>
      .cls-1 {
        fill: none;
      }

      .cls-1, .cls-2, .cls-3, .cls-4, .cls-5, .cls-6, .cls-7, .cls-8, .cls-9, .cls-10 {
        stroke-miterlimit: 10;
        stroke-width: 3px;
      }

      .cls-1, .cls-2, .cls-3, .cls-4, .cls-5, .cls-6, .cls-7, .cls-8, .cls-10 {
        stroke: #1d1d1b;
      }

      .cls-11, .cls-8, .cls-9 {
        fill: #fff;
      }

      .cls-12, .cls-5 {
        fill: #1d1d1b;
      }

      .cls-2 {
        fill: #936037;
      }

      .cls-3 {
        fill: #ca9e67;
      }

      .cls-4 {
        fill: #36a9e1;
      }

      .cls-6 {
        fill: #432918;
      }

      .cls-7 {
        fill: #7d4e24;
      }

      .cls-9 {
        stroke: #fff;
      }

      .cls-10 {
        fill: #f6f6f6;
      }
    </style>
  </defs>
  <path class="cls-11" d="M141.97,114.53v0Z"/>
  <path class="cls-8" d="M309.19,124.21c0,11.11-9.01,20.12-20.13,20.12s-20.12-9.01-20.12-20.12,9.01-20.13,20.12-20.13,20.13,9.01,20.13,20.13Z"/>
  <path class="cls-8" d="M303.03,54.91c-4.34-2.47-9.05-4.38-14.01-5.62-1.73-.44-3.5-.8-5.29-1.07-2.81-.44-5.68-.66-8.6-.66-5.47,0-10.76,.78-15.76,2.23-6.62,1.91-12.74,5-18.11,9.03-13.75,10.32-22.65,26.75-22.65,45.26,0,31.21,25.31,56.51,56.52,56.51,14.66,0,28.02-5.59,38.07-14.75,11.33-10.33,18.44-25.21,18.44-41.76,0-21.07-11.52-39.44-28.61-49.17Zm-13.97,89.42c-11.11,0-20.12-9.01-20.12-20.12s9.01-20.13,20.12-20.13,20.13,9.01,20.13,20.13-9.01,20.12-20.13,20.12Z"/>
  <path class="cls-12" d="M309.19,124.21c0,11.11-9.01,20.12-20.13,20.12s-20.12-9.01-20.12-20.12,9.01-20.13,20.12-20.13,20.13,9.01,20.13,20.13Z"/>
  <circle class="cls-11" cx="296.13" cy="117.14" r="7.06"/>
  <path class="cls-4" d="M113.77,21.14c-6.52,3.37-12.88,7.27-19.05,11.7-7.92,5.67-15.52,12.2-22.73,19.51-3.98,4.05-7.85,8.34-11.58,12.86-9.21-6.35-15.22-16.8-15.22-28.62C45.19,17.21,61.37,1.5,81.32,1.5c14.25,0,26.56,8,32.45,19.64Z"/>
  <path class="cls-4" d="M307.06,38.79c0,5.81-1.46,11.3-4.03,16.12-4.34-2.47-9.05-4.38-14.01-5.62-1.24-1.2-2.53-2.38-3.88-3.55-7.05-6.11-15.55-11.79-25.73-16.95-5.86-2.97-12.27-5.76-19.28-8.36,6.36-10.05,17.77-16.74,30.8-16.74,19.95,0,36.13,15.71,36.13,35.1Z"/>
  <path class="cls-1" d="M141.97,41.75c-9.63,0-18.69,2.41-26.62,6.65-9.22,4.93-16.92,12.35-22.2,21.36-4.89,8.37-7.7,18.11-7.7,28.51,0,31.21,25.3,56.52,56.52,56.52s56.51-25.31,56.51-56.52-25.3-56.52-56.51-56.52Zm12.38,96.78c-11.11,0-20.12-9.01-20.12-20.13s9.01-20.13,20.12-20.13,20.13,9.01,20.13,20.13-9.01,20.13-20.13,20.13Z"/>
  <path class="cls-1" d="M289.06,104.08c-11.11,0-20.12,9.01-20.12,20.13s9.01,20.12,20.12,20.12,20.13-9.01,20.13-20.12-9.01-20.13-20.13-20.13Z"/>
  <path class="cls-8" d="M205.7,204.96v23.31c0,2.94-1.19,5.6-3.12,7.53-1.93,1.92-4.59,3.11-7.53,3.11-5.87,0-10.64-4.76-10.64-10.64v-21.21c5.41-.95,11.91-2.5,19.62-2.21,.56,.02,1.11,.06,1.67,.11Z"/>
  <path class="cls-4" d="M273.85,362.92c-2.81,3.33-5.75,5.03-8.53,4.58-2.74-.44-4.97-2.92-6.59-6.86-3.7,3.09-7.19,4.38-10.01,3.29-5.04-1.95-6.59-11.04-4.72-22.98,.94-6.07,2.76-12.87,5.46-19.85,.44-1.13,.89-2.25,1.35-3.34,6.94-16.35,16.65-28.07,23.79-29.13,1.19-.52,2.38-.71,3.54-.53,8.06,1.31,11.71,20.14,8.17,42.06-.67,4.15-1.55,8.12-2.59,11.81l10.58,7.78c-3.07-29.55-7.24-62.33-5.24-97.59,1.66-29.27,17.68-67.96,24.14-106.32-10.05,9.16-23.41,14.75-38.07,14.75-31.21,0-56.52-25.3-56.52-56.51,0-18.51,8.9-34.94,22.65-45.26,5.37-4.03,11.49-7.12,18.11-9.03,5-1.45,10.29-2.23,15.76-2.23,2.92,0,5.79,.22,8.6,.66,.55-.78,1.02-1.61,1.41-2.48-7.05-6.11-15.55-11.79-25.73-16.95-5.86-2.97-12.27-5.76-19.28-8.36-12.04-4.48-25.85-8.4-41.65-11.65-29.24-6.03-58.28-1.29-84.71,12.36-6.52,3.37-12.88,7.27-19.05,11.7-7.92,5.67-15.52,12.2-22.73,19.51-3.98,4.05-7.85,8.34-11.58,12.86C24.36,108.9,.84,174.21,1.51,252.16c.91,106.85,26.73,189.86,80.81,227.19,5.25,3.63,10.77,6.83,16.56,9.58,26.37,12.5,58.33,15.65,96.17,7.56,13.52-2.89,25.32-6.25,35.61-10.05,7.43-2.74,14.08-5.72,20.01-8.92,41.68-22.46,48.25-55.96,46.13-97.72l-22.95-16.88Zm-30.72-169.68c-1.82,16.3-7.84,18.23-16.14,16.64v18.39c0,2.94-1.19,5.6-3.12,7.53-1.93,1.92-4.59,3.11-7.53,3.11-5.87,0-10.64-4.76-10.64-10.64,0,2.94-1.19,5.6-3.12,7.53-1.93,1.92-4.59,3.11-7.53,3.11-5.87,0-10.64-4.76-10.64-10.64v-21.21c-9.55,1.69-15.76,1.52-19.47-13.82-2.38-9.83,6.82-18.73,19.83-23.31-.24-1.06-.36-2.15-.36-3.27,0-10.18,10.05-18.43,22.44-18.43s22.44,8.25,22.44,18.43c0,1.92-.36,3.76-1.02,5.5,9.63,4.87,15.82,12.53,14.86,21.08Z"/>
  <path class="cls-3" d="M243.13,193.24c-1.82,16.3-7.84,18.23-16.14,16.64-6.12-1.18-13.48-4.26-21.29-4.92-.56-.05-1.11-.09-1.67-.11-7.71-.29-14.21,1.26-19.62,2.21-9.55,1.69-15.76,1.52-19.47-13.82-2.38-9.83,6.82-18.73,19.83-23.31,1.87,8.62,11.05,15.16,22.08,15.16,10.07,0,18.58-5.44,21.42-12.93,9.63,4.87,15.82,12.53,14.86,21.08Z"/>
  <path class="cls-10" d="M226.99,209.88v18.39c0,2.94-1.19,5.6-3.12,7.53-1.93,1.92-4.59,3.11-7.53,3.11-5.87,0-10.64-4.76-10.64-10.64v-23.31c7.81,.66,15.17,3.74,21.29,4.92Z"/>
  <path class="cls-3" d="M177.57,263.87c-2.05,4.85-9.87,9.64-20.72,12.97-5.05,1.54-10.75,2.76-16.84,3.53-19.22,2.43-35.9-.55-40.51-6.72-1.03-.8-1.76-1.76-2.15-2.87-2.12-6.14,6.84-15.08,21.16-22.15,3.68-1.81,7.7-3.5,11.99-4.99,4.93-1.71,9.76-3,14.3-3.87,14.78-2.84,26.48-1.26,28.53,4.63,.91,2.62-.21,5.76-2.92,9.05,4.48,1.79,7.27,4.26,7.65,7.25,.13,1.05-.04,2.11-.49,3.17Z"/>
  <path class="cls-8" d="M141.97,41.75c-9.63,0-18.69,2.41-26.62,6.65-9.22,4.93-16.92,12.35-22.2,21.36-4.89,8.37-7.7,18.11-7.7,28.51,0,31.21,25.3,56.52,56.52,56.52s56.51-25.31,56.51-56.52-25.3-56.52-56.51-56.52Zm12.38,96.78c-11.11,0-20.12-9.01-20.12-20.13s9.01-20.13,20.12-20.13,20.13,9.01,20.13,20.13-9.01,20.13-20.13,20.13Z"/>
  <path class="cls-5" d="M154.35,98.27c-11.11,0-20.12,9.01-20.12,20.13s9.01,20.13,20.12,20.13,20.13-9.01,20.13-20.13-9.01-20.13-20.13-20.13Zm7.07,20.13c-3.9,0-7.07-3.16-7.07-7.07s3.17-7.06,7.07-7.06,7.06,3.16,7.06,7.06-3.16,7.07-7.06,7.07Z"/>
  <path class="cls-9" d="M168.48,111.33c0,3.91-3.16,7.07-7.06,7.07s-7.07-3.16-7.07-7.07,3.17-7.06,7.07-7.06,7.06,3.16,7.06,7.06Z"/>
  <path class="cls-5" d="M229.29,166.66c0,1.92-.36,3.76-1.02,5.5-2.84,7.49-11.35,12.93-21.42,12.93-11.03,0-20.21-6.54-22.08-15.16-.24-1.06-.36-2.15-.36-3.27,0-10.18,10.05-18.43,22.44-18.43s22.44,8.25,22.44,18.43Z"/>
  <path class="cls-1" d="M289.02,49.29c-1.73-.44-3.5-.8-5.29-1.07,.55-.78,1.02-1.61,1.41-2.48,1.35,1.17,2.64,2.35,3.88,3.55Z"/>
  <path class="cls-5" d="M94.72,32.84c-7.92,5.67-15.52,12.2-22.73,19.51-4.25-2.78-7.05-7.58-7.05-13.04,0-8.61,6.98-15.59,15.59-15.59,6.31,0,11.74,3.74,14.19,9.12Z"/>
  <path class="cls-5" d="M286.53,39.31c0,2.29-.5,4.47-1.39,6.43-7.05-6.11-15.55-11.79-25.73-16.95,2.86-3.12,6.96-5.07,11.52-5.07,8.61,0,15.6,6.98,15.6,15.59Z"/>
  <g>
    <path class="cls-3" d="M277.3,542.59c-2.39,1.41-5.68,.93-9.44-1.08-.88,4.74-2.75,7.97-5.6,8.93-7.73,2.59-19.73-12.38-26.79-33.43-3.89-11.57-5.47-22.58-4.81-30.57,7.43-2.74,14.08-5.72,20.01-8.92,6.21,4.86,13.06,12.94,18.94,22.93,11.27,19.13,14.71,37.99,7.69,42.14Z"/>
    <line class="cls-3" x1="267.86" y1="541.51" x2="256.94" y2="519.43"/>
  </g>
  <g>
    <path class="cls-3" d="M100.51,518.25c-2.22,22.09-10.59,39.34-18.7,38.53-2.76-.27-5.14-2.61-6.98-6.45-3.51,3.31-6.92,4.8-9.8,3.89-7.77-2.48-8.59-21.64-1.84-42.79,4.88-15.32,12.4-27.48,19.13-32.08,5.25,3.63,10.77,6.83,16.56,9.58,2.06,7.56,2.77,17.97,1.63,29.32Z"/>
    <line class="cls-3" x1="74.83" y1="550.33" x2="79.08" y2="526.07"/>
  </g>
  <path class="cls-2" d="M144.8,239.77c-4.54,.87-9.37,2.16-14.3,3.87-4.29,1.49-8.31,3.18-11.99,4.99l-19.44-14.3c-5.05-3.71-6.14-10.83-2.42-15.88,2.23-3.03,5.67-4.63,9.16-4.63,2.34,0,4.7,.72,6.73,2.21l32.26,23.74Z"/>
  <path class="cls-7" d="M250.81,317.76c-.46,1.09-.91,2.21-1.35,3.34-2.7,6.98-4.52,13.78-5.46,19.85l-87.15-64.11c10.85-3.33,18.67-8.12,20.72-12.97l73.24,53.89Z"/>
  <path class="cls-2" d="M391.39,421.18l-15.07,17.12-79.52-58.5-22.95-16.88c3.77-4.47,7.3-11.89,9.87-20.95l10.58,7.78,97.09,71.43Z"/>
  <line class="cls-1" x1="169.84" y1="253.58" x2="146.48" y2="261.38"/>
  <line class="cls-1" x1="259.07" y1="361.34" x2="265.6" y2="337.59"/>
  <path class="cls-3" d="M425.19,456.65l-6.46,12.23-48.03-18.24c-1.91-.73-2.5-3.13-1.15-4.66l6.77-7.68,15.07-17.12,6.5-7.38c1.35-1.53,3.81-1.25,4.77,.55l22.53,42.3Z"/>
  <path class="cls-6" d="M449.44,462.47c-3.72,1.72-7.06,4.22-9.78,7.48-2.27,2.72-3.94,5.78-5.02,9.02l-17.14-3.15c-1.1-.2-1.69-1.42-1.17-2.41l2.4-4.53,6.46-12.23,5.39-10.19c.52-.99,1.85-1.19,2.64-.39l16.22,16.4Z"/>
  <path class="cls-3" d="M525.96,543.22l-51.27-14.01,6.13,12c1.11,2.17-1.6,4.26-3.41,2.64l-25.62-22.87c-1.45-.93-2.87-1.96-4.23-3.1-12.43-10.38-17.2-26.13-12.92-38.91,1.08-3.24,2.75-6.3,5.02-9.02,2.72-3.26,6.06-5.76,9.78-7.48,6.54-3.02,14.26-3.66,21.86-1.87,.41,.09,.83,.19,1.24,.31,5.48,1.47,10.88,4.21,15.69,8.22,1.63,1.36,3.13,2.82,4.49,4.34l30.08,18.74c2.6,1.62,1.14,5.65-1.9,5.23l-13.9-1.92,24.87,39.74c2.58,4.11-1.24,9.24-5.91,7.96Z"/>
  <path class="cls-3" d="M246.25,362.84c-3.36-4.15-3.9-13.47-1.68-24.81,1.04-5.28,2.68-10.99,4.9-16.83,7.02-18.45,17.67-32.04,25.39-33.26,1.21-.55,2.42-.75,3.6-.57,6.5,1.01,10.21,13.32,9.68,29.57-.14,4.17-.55,8.59-1.27,13.16-.83,5.25-1.99,10.21-3.38,14.71-4.53,14.65-11.54,24.43-17.79,23.47-2.78-.43-5.05-2.93-6.7-6.93-3.74,3.18-7.29,4.52-10.14,3.44-1-.38-1.87-1.04-2.6-1.95Z"/>
  <line class="cls-1" x1="266.39" y1="338.32" x2="258.41" y2="361.62"/>
  <path class="cls-1" d="M472.54,460.91c-.41-.12-.83-.22-1.24-.31,.42,.01,.84,.1,1.24,.31Z"/>
</svg>