<svg xmlns="http://www.w3.org/2000/svg" width="16px" height="16px" viewBox="0 0 2048 2048">
	<circle fill-opacity="0.6" r="896" cx="1024" cy="1024" fill="#40b6e0"></circle>
	<g transform="scale(0.55)"><path fill-opacity="0.7" transform="translate(554.01, 2580) rotate(180) scale(-1, 1)" fill="#231f20" d="M47 1493h1139v-170h-467v-1323h-203v1323h-469v170z"></path><path fill-opacity="0.7" transform="translate(1787.01, 2580) rotate(180) scale(-1, 1)" fill="#231f20" d="M436 166q255 0 356 125.5t101 453.5q0 331 -100.5 456.5t-356.5 125.5h-96v-1161h96zM440 1493q342 0 504 -182t162 -566q0 -382 -162 -563.5t-504 -181.5h-303v1493h303z"></path></g>
</svg>